<svg xmlns="http://www.w3.org/2000/svg" viewBox="0 0 64 64">
  <defs>
    <linearGradient id="bg" x1="8" y1="6" x2="58" y2="60" gradientUnits="userSpaceOnUse">
      <stop stop-color="#17121F"/>
      <stop offset="1" stop-color="#07070A"/>
    </linearGradient>
    <linearGradient id="mark" x1="19" y1="15" x2="46" y2="50" gradientUnits="userSpaceOnUse">
      <stop stop-color="#FFF6D8"/>
      <stop offset="0.62" stop-color="#F3E7C8"/>
      <stop offset="1" stop-color="#8DF8E8"/>
    </linearGradient>
  </defs>
  <rect width="64" height="64" rx="15" fill="url(#bg)"/>
  <rect x="3" y="3" width="58" height="58" rx="13" fill="none" stroke="#F3E7C8" stroke-opacity="0.45"/>
  <path d="M19 16c2.2 0 4 1.8 4 4v24h15c2.2 0 4 1.8 4 4s-1.8 4-4 4H19c-2.2 0-4-1.8-4-4V20c0-2.2 1.8-4 4-4Z" fill="url(#mark)"/>
  <path d="M34.5 25.5c0-2.3 2.5-3.7 4.5-2.5l10.7 6.6c1.9 1.2 1.9 3.9 0 5L39 41.2c-2 1.2-4.5-.2-4.5-2.5V25.5Z" fill="url(#mark)"/>
</svg>
