<svg xmlns="http://www.w3.org/2000/svg" width="1200" height="630" viewBox="0 0 1200 630" role="img" aria-labelledby="title desc">
  <title id="title">Lumeo Studio social preview</title>
  <desc id="desc">A premium dark social preview for Lumeo Studio.</desc>
  <defs>
    <linearGradient id="bg" x1="0" y1="0" x2="1200" y2="630" gradientUnits="userSpaceOnUse">
      <stop stop-color="#07070A"/>
      <stop offset="0.52" stop-color="#0E0B16"/>
      <stop offset="1" stop-color="#07070A"/>
    </linearGradient>
    <radialGradient id="creamGlow" cx="0" cy="0" r="1" gradientUnits="userSpaceOnUse" gradientTransform="translate(282 164) rotate(48) scale(410 320)">
      <stop stop-color="#F3E7C8" stop-opacity="0.28"/>
      <stop offset="1" stop-color="#F3E7C8" stop-opacity="0"/>
    </radialGradient>
    <radialGradient id="violetGlow" cx="0" cy="0" r="1" gradientUnits="userSpaceOnUse" gradientTransform="translate(920 150) rotate(130) scale(440 300)">
      <stop stop-color="#A78BFA" stop-opacity="0.24"/>
      <stop offset="1" stop-color="#A78BFA" stop-opacity="0"/>
    </radialGradient>
    <radialGradient id="mintGlow" cx="0" cy="0" r="1" gradientUnits="userSpaceOnUse" gradientTransform="translate(955 485) rotate(45) scale(360 250)">
      <stop stop-color="#8DF8E8" stop-opacity="0.18"/>
      <stop offset="1" stop-color="#8DF8E8" stop-opacity="0"/>
    </radialGradient>
    <linearGradient id="mark" x1="136" y1="102" x2="300" y2="322" gradientUnits="userSpaceOnUse">
      <stop stop-color="#FFF6D8"/>
      <stop offset="0.6" stop-color="#F3E7C8"/>
      <stop offset="1" stop-color="#BDFBF1"/>
    </linearGradient>
    <filter id="shadow" x="0" y="0" width="1200" height="630" filterUnits="userSpaceOnUse" color-interpolation-filters="sRGB">
      <feDropShadow dx="0" dy="24" stdDeviation="28" flood-color="#000000" flood-opacity="0.4"/>
    </filter>
  </defs>

  <rect width="1200" height="630" fill="url(#bg)"/>
  <rect width="1200" height="630" fill="url(#creamGlow)"/>
  <rect width="1200" height="630" fill="url(#violetGlow)"/>
  <rect width="1200" height="630" fill="url(#mintGlow)"/>

  <g opacity="0.2">
    <path d="M0 90h1200M0 180h1200M0 270h1200M0 360h1200M0 450h1200M0 540h1200" stroke="#F3E7C8" stroke-opacity="0.14"/>
    <path d="M120 0v630M240 0v630M360 0v630M480 0v630M600 0v630M720 0v630M840 0v630M960 0v630M1080 0v630" stroke="#F3E7C8" stroke-opacity="0.1"/>
  </g>

  <g filter="url(#shadow)">
    <rect x="78" y="88" width="212" height="212" rx="52" fill="#0D0B13"/>
    <rect x="80" y="90" width="208" height="208" rx="50" fill="none" stroke="#F3E7C8" stroke-opacity="0.35" stroke-width="3"/>
    <path d="M150 128c9.4 0 17 7.6 17 17v101h65c9.4 0 17 7.6 17 17s-7.6 17-17 17h-82c-9.4 0-17-7.6-17-17V145c0-9.4 7.6-17 17-17Z" fill="url(#mark)"/>
    <path d="M219 171.5c0-10.3 11.3-16.7 20.1-11.3l47.6 29.4c8.4 5.2 8.4 17.4 0 22.6l-47.6 29.4c-8.8 5.4-20.1-.9-20.1-11.3v-58.8Z" fill="url(#mark)"/>
  </g>

  <text x="340" y="176" fill="#F7F0DE" font-family="Inter, Arial, sans-serif" font-size="34" font-weight="800" letter-spacing="4">LUMEO</text>
  <text x="340" y="274" fill="#F7F0DE" font-family="Inter, Arial, sans-serif" font-size="78" font-weight="900">Lumeo Studio</text>
  <text x="344" y="338" fill="#F3E7C8" font-family="Inter, Arial, sans-serif" font-size="36" font-weight="700">Create clean short videos.</text>

  <g font-family="Inter, Arial, sans-serif" font-size="24" font-weight="800">
    <rect x="344" y="410" width="164" height="56" rx="28" fill="#F3E7C8" fill-opacity="0.1" stroke="#F3E7C8" stroke-opacity="0.22"/>
    <text x="376" y="446" fill="#F7F0DE">Trim clips</text>

    <rect x="528" y="410" width="238" height="56" rx="28" fill="#F3E7C8" fill-opacity="0.1" stroke="#F3E7C8" stroke-opacity="0.22"/>
    <text x="560" y="446" fill="#F7F0DE">Frame for socials</text>

    <rect x="786" y="410" width="244" height="56" rx="28" fill="#F3E7C8" fill-opacity="0.1" stroke="#F3E7C8" stroke-opacity="0.22"/>
    <text x="818" y="446" fill="#F7F0DE">Export clean MP4</text>
  </g>

  <rect x="66" y="66" width="1068" height="498" rx="48" fill="none" stroke="#F3E7C8" stroke-opacity="0.08"/>
</svg>
